<mxfile host="Electron" agent="Mozilla/5.0 (Windows NT 10.0; Win64; x64) AppleWebKit/537.36 (KHTML, like Gecko) draw.io/24.7.5 Chrome/126.0.6478.183 Electron/31.3.0 Safari/537.36" version="24.7.5">
  <diagram name="Page-1" id="tJ3HRt4qwoN1L5MFhmJX">
    <mxGraphModel dx="1407" dy="1686" grid="0" gridSize="10" guides="1" tooltips="1" connect="1" arrows="1" fold="1" page="1" pageScale="1" pageWidth="2000" pageHeight="1500" background="none" math="0" shadow="0">
      <root>
        <object label="" id="0">
          <mxCell />
        </object>
        <mxCell id="1" parent="0" />
        <mxCell id="DyUBaXVDuKabwyYEHic5-1" value="POST" style="swimlane;fontStyle=1;childLayout=stackLayout;horizontal=1;startSize=58;horizontalStack=0;resizeParent=1;resizeParentMax=0;resizeLast=0;collapsible=1;marginBottom=0;whiteSpace=wrap;html=1;sketch=1;curveFitting=1;jiggle=2;fontSize=19;labelBackgroundColor=none;rounded=1;" parent="1" vertex="1">
          <mxGeometry x="616" y="1025" width="232" height="322" as="geometry" />
        </mxCell>
        <mxCell id="DyUBaXVDuKabwyYEHic5-2" value="&lt;span style=&quot;font-size: 17px;&quot;&gt;&amp;nbsp;ID | Primary | int | unsigned | Ai&lt;/span&gt;" style="text;strokeColor=default;fillColor=none;align=left;verticalAlign=middle;spacingLeft=4;spacingRight=4;overflow=hidden;points=[[0,0.5],[1,0.5]];portConstraint=eastwest;rotatable=0;whiteSpace=wrap;html=1;fontColor=#e72323;fontStyle=1;sketch=1;curveFitting=1;jiggle=2;fontSize=17;labelBackgroundColor=none;" parent="DyUBaXVDuKabwyYEHic5-1" vertex="1">
          <mxGeometry y="58" width="232" height="60" as="geometry" />
        </mxCell>
        <mxCell id="DyUBaXVDuKabwyYEHic5-3" value="title | VARCHAR(100)" style="text;strokeColor=none;fillColor=none;align=left;verticalAlign=middle;spacingLeft=4;spacingRight=4;overflow=hidden;points=[[0,0.5],[1,0.5]];portConstraint=eastwest;rotatable=0;whiteSpace=wrap;html=1;sketch=1;curveFitting=1;jiggle=2;fontSize=17;fontStyle=1;labelBackgroundColor=none;" parent="DyUBaXVDuKabwyYEHic5-1" vertex="1">
          <mxGeometry y="118" width="232" height="41" as="geometry" />
        </mxCell>
        <mxCell id="DyUBaXVDuKabwyYEHic5-4" value="description | TEXT" style="text;strokeColor=default;fillColor=none;align=left;verticalAlign=middle;spacingLeft=4;spacingRight=4;overflow=hidden;points=[[0,0.5],[1,0.5]];portConstraint=eastwest;rotatable=0;whiteSpace=wrap;html=1;sketch=1;curveFitting=1;jiggle=2;fontSize=17;fontStyle=1;labelBackgroundColor=none;" parent="DyUBaXVDuKabwyYEHic5-1" vertex="1">
          <mxGeometry y="159" width="232" height="54" as="geometry" />
        </mxCell>
        <mxCell id="DyUBaXVDuKabwyYEHic5-92" value="publish_date | DATETIME" style="text;strokeColor=default;fillColor=none;align=left;verticalAlign=middle;spacingLeft=4;spacingRight=4;overflow=hidden;points=[[0,0.5],[1,0.5]];portConstraint=eastwest;rotatable=0;whiteSpace=wrap;html=1;sketch=1;curveFitting=1;jiggle=2;fontSize=17;fontStyle=1;labelBackgroundColor=none;" parent="DyUBaXVDuKabwyYEHic5-1" vertex="1">
          <mxGeometry y="213" width="232" height="59" as="geometry" />
        </mxCell>
        <mxCell id="DyUBaXVDuKabwyYEHic5-17" value="author | CHAR(30)" style="text;strokeColor=none;fillColor=none;align=left;verticalAlign=middle;spacingLeft=4;spacingRight=4;overflow=hidden;points=[[0,0.5],[1,0.5]];portConstraint=eastwest;rotatable=0;whiteSpace=wrap;html=1;sketch=1;curveFitting=1;jiggle=2;fontSize=17;fontStyle=1;labelBackgroundColor=none;" parent="DyUBaXVDuKabwyYEHic5-1" vertex="1">
          <mxGeometry y="272" width="232" height="50" as="geometry" />
        </mxCell>
        <mxCell id="DyUBaXVDuKabwyYEHic5-5" value="USER" style="swimlane;fontStyle=1;childLayout=stackLayout;horizontal=1;startSize=57;horizontalStack=0;resizeParent=1;resizeParentMax=0;resizeLast=0;collapsible=1;marginBottom=0;whiteSpace=wrap;html=1;sketch=1;curveFitting=1;jiggle=2;fontSize=19;labelBackgroundColor=none;rounded=1;" parent="1" vertex="1">
          <mxGeometry x="191" y="470" width="270" height="406" as="geometry" />
        </mxCell>
        <mxCell id="DyUBaXVDuKabwyYEHic5-6" value="&lt;span style=&quot;color: rgb(231, 35, 35); font-size: 17px;&quot;&gt;&amp;nbsp;ID -&amp;gt; Primary | int | unsigned | Ai&lt;/span&gt;" style="text;strokeColor=default;fillColor=none;align=left;verticalAlign=middle;spacingLeft=4;spacingRight=4;overflow=hidden;points=[[0,0.5],[1,0.5]];portConstraint=eastwest;rotatable=0;whiteSpace=wrap;html=1;sketch=1;curveFitting=1;jiggle=2;fontSize=17;fontStyle=1;labelBackgroundColor=none;" parent="DyUBaXVDuKabwyYEHic5-5" vertex="1">
          <mxGeometry y="57" width="270" height="63" as="geometry" />
        </mxCell>
        <mxCell id="DyUBaXVDuKabwyYEHic5-7" value="username | CHAR(30)" style="text;strokeColor=default;fillColor=none;align=left;verticalAlign=middle;spacingLeft=4;spacingRight=4;overflow=hidden;points=[[0,0.5],[1,0.5]];portConstraint=eastwest;rotatable=0;whiteSpace=wrap;html=1;sketch=1;curveFitting=1;jiggle=2;fontSize=17;fontStyle=1;labelBackgroundColor=none;" parent="DyUBaXVDuKabwyYEHic5-5" vertex="1">
          <mxGeometry y="120" width="270" height="49" as="geometry" />
        </mxCell>
        <mxCell id="DyUBaXVDuKabwyYEHic5-8" value="email | VARCHAR(100)" style="text;strokeColor=default;fillColor=none;align=left;verticalAlign=middle;spacingLeft=4;spacingRight=4;overflow=hidden;points=[[0,0.5],[1,0.5]];portConstraint=eastwest;rotatable=0;whiteSpace=wrap;html=1;sketch=1;curveFitting=1;jiggle=2;fontSize=15;fontStyle=1;labelBackgroundColor=none;" parent="DyUBaXVDuKabwyYEHic5-5" vertex="1">
          <mxGeometry y="169" width="270" height="47" as="geometry" />
        </mxCell>
        <mxCell id="DyUBaXVDuKabwyYEHic5-15" value="password | CHAR(60)" style="text;strokeColor=default;fillColor=none;align=left;verticalAlign=middle;spacingLeft=4;spacingRight=4;overflow=hidden;points=[[0,0.5],[1,0.5]];portConstraint=eastwest;rotatable=0;whiteSpace=wrap;html=1;sketch=1;curveFitting=1;jiggle=2;fontSize=16;fontStyle=1;labelBackgroundColor=none;" parent="DyUBaXVDuKabwyYEHic5-5" vertex="1">
          <mxGeometry y="216" width="270" height="42" as="geometry" />
        </mxCell>
        <mxCell id="DyUBaXVDuKabwyYEHic5-16" value="created_at | DATETIME" style="text;strokeColor=default;fillColor=none;align=left;verticalAlign=middle;spacingLeft=4;spacingRight=4;overflow=hidden;points=[[0,0.5],[1,0.5]];portConstraint=eastwest;rotatable=0;whiteSpace=wrap;html=1;sketch=1;curveFitting=1;jiggle=2;fontSize=15;fontStyle=1;labelBackgroundColor=none;" parent="DyUBaXVDuKabwyYEHic5-5" vertex="1">
          <mxGeometry y="258" width="270" height="50" as="geometry" />
        </mxCell>
        <mxCell id="DyUBaXVDuKabwyYEHic5-54" value="role | enum(&#39;user&#39; , &#39;admin&#39;)" style="text;strokeColor=none;fillColor=none;align=left;verticalAlign=middle;spacingLeft=4;spacingRight=4;overflow=hidden;points=[[0,0.5],[1,0.5]];portConstraint=eastwest;rotatable=0;whiteSpace=wrap;html=1;sketch=1;curveFitting=1;jiggle=2;fontSize=15;fontStyle=1;labelBackgroundColor=none;" parent="DyUBaXVDuKabwyYEHic5-5" vertex="1">
          <mxGeometry y="308" width="270" height="44" as="geometry" />
        </mxCell>
        <mxCell id="DyUBaXVDuKabwyYEHic5-60" value="avatar_id -&amp;gt;&amp;nbsp;&lt;span style=&quot;font-size: 15px;&quot;&gt;| Foreign-Key | int | null&lt;/span&gt;" style="text;strokeColor=default;fillColor=none;align=left;verticalAlign=middle;spacingLeft=4;spacingRight=4;overflow=hidden;points=[[0,0.5],[1,0.5]];portConstraint=eastwest;rotatable=0;whiteSpace=wrap;html=1;fontColor=#FFFF66;sketch=1;curveFitting=1;jiggle=2;fontSize=15;fontStyle=1;labelBackgroundColor=none;rounded=1;" parent="DyUBaXVDuKabwyYEHic5-5" vertex="1">
          <mxGeometry y="352" width="270" height="54" as="geometry" />
        </mxCell>
        <mxCell id="DyUBaXVDuKabwyYEHic5-9" value="COMMENT" style="swimlane;fontStyle=1;childLayout=stackLayout;horizontal=1;startSize=57;horizontalStack=0;resizeParent=1;resizeParentMax=0;resizeLast=0;collapsible=1;marginBottom=0;whiteSpace=wrap;html=1;sketch=1;curveFitting=1;jiggle=2;fontSize=20;labelBackgroundColor=none;swimlaneLine=1;rounded=1;" parent="1" vertex="1">
          <mxGeometry x="1595" y="187" width="301" height="536" as="geometry" />
        </mxCell>
        <mxCell id="iRIhQx6o-oyNlB2yPlpj-3" style="edgeStyle=orthogonalEdgeStyle;rounded=0;orthogonalLoop=1;jettySize=auto;html=1;entryX=1;entryY=0.5;entryDx=0;entryDy=0;" parent="DyUBaXVDuKabwyYEHic5-9" source="DyUBaXVDuKabwyYEHic5-10" target="iRIhQx6o-oyNlB2yPlpj-1" edge="1">
          <mxGeometry relative="1" as="geometry">
            <Array as="points">
              <mxPoint x="356" y="92" />
              <mxPoint x="356" y="503" />
            </Array>
          </mxGeometry>
        </mxCell>
        <mxCell id="DyUBaXVDuKabwyYEHic5-10" value="&lt;span style=&quot;color: rgb(231, 35, 35); font-size: 19px;&quot;&gt;&amp;nbsp;ID -&amp;gt; Primary | int | unsigned | Ai&lt;/span&gt;" style="text;strokeColor=default;fillColor=none;align=left;verticalAlign=middle;spacingLeft=4;spacingRight=4;overflow=hidden;points=[[0,0.5],[1,0.5]];portConstraint=eastwest;rotatable=0;whiteSpace=wrap;html=1;sketch=1;curveFitting=1;jiggle=2;fontSize=19;fontStyle=1;labelBackgroundColor=none;swimlaneLine=1;rounded=1;" parent="DyUBaXVDuKabwyYEHic5-9" vertex="1">
          <mxGeometry y="57" width="301" height="70" as="geometry" />
        </mxCell>
        <mxCell id="DyUBaXVDuKabwyYEHic5-11" value="&amp;nbsp;message | VARCHAR(300)" style="text;strokeColor=default;fillColor=none;align=left;verticalAlign=middle;spacingLeft=4;spacingRight=4;overflow=hidden;points=[[0,0.5],[1,0.5]];portConstraint=eastwest;rotatable=0;whiteSpace=wrap;html=1;sketch=1;curveFitting=1;jiggle=2;fontSize=19;fontStyle=1;labelBackgroundColor=none;swimlaneLine=1;rounded=1;" parent="DyUBaXVDuKabwyYEHic5-9" vertex="1">
          <mxGeometry y="127" width="301" height="69" as="geometry" />
        </mxCell>
        <mxCell id="DyUBaXVDuKabwyYEHic5-20" value="created_at | TIMESTAMP" style="text;strokeColor=default;fillColor=none;align=left;verticalAlign=middle;spacingLeft=4;spacingRight=4;overflow=hidden;points=[[0,0.5],[1,0.5]];portConstraint=eastwest;rotatable=0;whiteSpace=wrap;html=1;sketch=1;curveFitting=1;jiggle=2;fontSize=19;fontStyle=1;labelBackgroundColor=none;swimlaneLine=1;rounded=1;" parent="DyUBaXVDuKabwyYEHic5-9" vertex="1">
          <mxGeometry y="196" width="301" height="68" as="geometry" />
        </mxCell>
        <mxCell id="fKSfSA_UPtx_BQv1lrkw-18" value="&amp;nbsp;status | enum(&#39;visible&#39; , &#39;hide&#39;)" style="text;strokeColor=default;fillColor=none;align=left;verticalAlign=middle;spacingLeft=4;spacingRight=4;overflow=hidden;points=[[0,0.5],[1,0.5]];portConstraint=eastwest;rotatable=0;whiteSpace=wrap;html=1;sketch=1;curveFitting=1;jiggle=2;fontSize=19;fontStyle=1;labelBackgroundColor=none;swimlaneLine=1;rounded=1;" parent="DyUBaXVDuKabwyYEHic5-9" vertex="1">
          <mxGeometry y="264" width="301" height="66" as="geometry" />
        </mxCell>
        <mxCell id="DyUBaXVDuKabwyYEHic5-22" value="&lt;font style=&quot;font-size: 19px;&quot; color=&quot;#ffff66&quot;&gt;post_id -&amp;gt;&amp;nbsp;Foreign-Key | int |&amp;nbsp;&lt;/font&gt;" style="text;strokeColor=default;fillColor=none;align=left;verticalAlign=middle;spacingLeft=4;spacingRight=4;overflow=hidden;points=[[0,0.5],[1,0.5]];portConstraint=eastwest;rotatable=0;whiteSpace=wrap;html=1;sketch=1;curveFitting=1;jiggle=2;fontSize=19;fontStyle=1;labelBackgroundColor=none;swimlaneLine=1;rounded=1;" parent="DyUBaXVDuKabwyYEHic5-9" vertex="1">
          <mxGeometry y="330" width="301" height="73" as="geometry" />
        </mxCell>
        <mxCell id="DyUBaXVDuKabwyYEHic5-21" value="&amp;nbsp;user_id&amp;nbsp;&lt;span style=&quot;font-size: 19px;&quot;&gt;&amp;nbsp;-&amp;gt; Foreign-Key | int |&amp;nbsp; &amp;nbsp;&lt;/span&gt;" style="text;strokeColor=none;fillColor=none;align=left;verticalAlign=middle;spacingLeft=4;spacingRight=4;overflow=hidden;points=[[0,0.5],[1,0.5]];portConstraint=eastwest;rotatable=0;whiteSpace=wrap;html=1;fontColor=#FFFF66;sketch=1;curveFitting=1;jiggle=2;fontSize=19;fontStyle=1;labelBackgroundColor=none;swimlaneLine=1;rounded=1;" parent="DyUBaXVDuKabwyYEHic5-9" vertex="1">
          <mxGeometry y="403" width="301" height="67" as="geometry" />
        </mxCell>
        <mxCell id="iRIhQx6o-oyNlB2yPlpj-1" value="&lt;font color=&quot;#ffff66&quot;&gt;parent_id -&amp;gt; Foreign-key | int | null&amp;nbsp;&lt;/font&gt;" style="text;strokeColor=default;fillColor=none;align=left;verticalAlign=middle;spacingLeft=4;spacingRight=4;overflow=hidden;points=[[0,0.5],[1,0.5]];portConstraint=eastwest;rotatable=0;whiteSpace=wrap;html=1;sketch=1;curveFitting=1;jiggle=2;fontSize=19;fontStyle=1;labelBackgroundColor=none;swimlaneLine=1;rounded=1;" parent="DyUBaXVDuKabwyYEHic5-9" vertex="1">
          <mxGeometry y="470" width="301" height="66" as="geometry" />
        </mxCell>
        <mxCell id="DyUBaXVDuKabwyYEHic5-31" value="1,1" style="text;strokeColor=none;align=center;fillColor=none;html=1;verticalAlign=middle;whiteSpace=wrap;rounded=0;fontColor=#00CCCC;sketch=1;curveFitting=1;jiggle=2;fontSize=19;fontStyle=1;labelBackgroundColor=none;" parent="1" vertex="1">
          <mxGeometry x="1531" y="590" width="60" height="30" as="geometry" />
        </mxCell>
        <mxCell id="DyUBaXVDuKabwyYEHic5-32" value="1,1" style="text;strokeColor=none;align=center;fillColor=none;html=1;verticalAlign=middle;whiteSpace=wrap;rounded=0;fontColor=#00CCCC;sketch=1;curveFitting=1;jiggle=2;fontSize=19;fontStyle=1;labelBackgroundColor=none;" parent="1" vertex="1">
          <mxGeometry x="1535" y="502" width="60" height="30" as="geometry" />
        </mxCell>
        <mxCell id="DyUBaXVDuKabwyYEHic5-33" value="1,1" style="text;strokeColor=none;align=center;fillColor=none;html=1;verticalAlign=middle;whiteSpace=wrap;rounded=0;fontColor=#00CCCC;sketch=1;curveFitting=1;jiggle=2;fontSize=17;fontStyle=1;labelBackgroundColor=none;" parent="1" vertex="1">
          <mxGeometry x="1376" y="1117" width="60" height="30" as="geometry" />
        </mxCell>
        <mxCell id="DyUBaXVDuKabwyYEHic5-34" value="1,N" style="text;strokeColor=none;align=center;fillColor=none;html=1;verticalAlign=middle;whiteSpace=wrap;rounded=0;fontColor=#00CCCC;sketch=1;curveFitting=1;jiggle=2;fontSize=17;fontStyle=1;labelBackgroundColor=none;" parent="1" vertex="1">
          <mxGeometry x="841" y="1036" width="60" height="30" as="geometry" />
        </mxCell>
        <mxCell id="DyUBaXVDuKabwyYEHic5-37" value="N,1" style="text;strokeColor=#008A00;align=center;fillColor=#008A00;html=1;verticalAlign=middle;whiteSpace=wrap;rounded=0;fontColor=#ffffff;sketch=1;curveFitting=1;jiggle=2;fontSize=17;fontStyle=1;labelBackgroundColor=none;" parent="1" vertex="1">
          <mxGeometry x="1253.5" y="815" width="60" height="30" as="geometry" />
        </mxCell>
        <mxCell id="DyUBaXVDuKabwyYEHic5-39" value="CATEGORY" style="swimlane;fontStyle=1;childLayout=stackLayout;horizontal=1;startSize=60;horizontalStack=0;resizeParent=1;resizeParentMax=0;resizeLast=0;collapsible=1;marginBottom=0;whiteSpace=wrap;html=1;sketch=1;curveFitting=1;jiggle=2;fontSize=19;labelBackgroundColor=none;rounded=1;" parent="1" vertex="1">
          <mxGeometry x="1555" y="897" width="198" height="191" as="geometry" />
        </mxCell>
        <mxCell id="DyUBaXVDuKabwyYEHic5-40" value="&lt;span style=&quot;color: rgb(231, 35, 35); font-size: 17px;&quot;&gt;&amp;nbsp;ID -&amp;gt; Primary | int | unsigned | Ai&lt;/span&gt;" style="text;strokeColor=default;fillColor=none;align=left;verticalAlign=middle;spacingLeft=4;spacingRight=4;overflow=hidden;points=[[0,0.5],[1,0.5]];portConstraint=eastwest;rotatable=0;whiteSpace=wrap;html=1;labelBorderColor=none;sketch=1;curveFitting=1;jiggle=2;fontSize=17;fontStyle=1;labelBackgroundColor=none;rounded=1;" parent="DyUBaXVDuKabwyYEHic5-39" vertex="1">
          <mxGeometry y="60" width="198" height="68" as="geometry" />
        </mxCell>
        <mxCell id="DyUBaXVDuKabwyYEHic5-41" value="&amp;nbsp;label -&amp;gt; VARCHAR(100)" style="text;strokeColor=none;fillColor=none;align=left;verticalAlign=middle;spacingLeft=0;spacingRight=4;overflow=hidden;points=[[0,0.5],[1,0.5]];portConstraint=eastwest;rotatable=0;whiteSpace=wrap;html=1;sketch=1;curveFitting=1;jiggle=2;fontSize=17;fontStyle=1;labelBackgroundColor=none;rounded=1;" parent="DyUBaXVDuKabwyYEHic5-39" vertex="1">
          <mxGeometry y="128" width="198" height="63" as="geometry" />
        </mxCell>
        <mxCell id="DyUBaXVDuKabwyYEHic5-44" value="1,1" style="text;strokeColor=none;align=center;fillColor=none;html=1;verticalAlign=middle;whiteSpace=wrap;rounded=0;fontColor=#00CCCC;sketch=1;curveFitting=1;jiggle=2;fontSize=17;fontStyle=1;labelBackgroundColor=none;" parent="1" vertex="1">
          <mxGeometry x="1147" y="1220" width="60" height="30" as="geometry" />
        </mxCell>
        <mxCell id="DyUBaXVDuKabwyYEHic5-46" value="POST_CATEGORY" style="swimlane;fontStyle=1;childLayout=stackLayout;horizontal=1;startSize=47;horizontalStack=0;resizeParent=1;resizeParentMax=0;resizeLast=0;collapsible=1;marginBottom=0;whiteSpace=wrap;html=1;sketch=1;curveFitting=1;jiggle=2;fontSize=20;labelBackgroundColor=none;rounded=1;" parent="1" vertex="1">
          <mxGeometry x="1214" y="1090" width="233" height="187" as="geometry" />
        </mxCell>
        <mxCell id="DyUBaXVDuKabwyYEHic5-49" value="&amp;nbsp;post_id&amp;nbsp;&lt;span style=&quot;font-size: 17px;&quot;&gt;&amp;nbsp;-&amp;gt; Foreign-Key |&amp;nbsp; &amp;nbsp;int |&amp;nbsp;&lt;/span&gt;" style="text;strokeColor=none;fillColor=none;align=left;verticalAlign=middle;spacingLeft=4;spacingRight=4;overflow=hidden;points=[[0,0.5],[1,0.5]];portConstraint=eastwest;rotatable=0;whiteSpace=wrap;html=1;fontColor=#FFFF66;sketch=1;curveFitting=1;jiggle=2;fontSize=17;fontStyle=1;labelBackgroundColor=none;" parent="DyUBaXVDuKabwyYEHic5-46" vertex="1">
          <mxGeometry y="47" width="233" height="62" as="geometry" />
        </mxCell>
        <mxCell id="DyUBaXVDuKabwyYEHic5-47" value="&amp;nbsp;category_id -&amp;gt;&amp;nbsp;&lt;span style=&quot;font-size: 17px;&quot;&gt;&amp;nbsp;Foreign&amp;nbsp; &amp;nbsp;Key | int |&amp;nbsp;&lt;/span&gt;" style="text;strokeColor=default;fillColor=none;align=left;verticalAlign=middle;spacingLeft=4;spacingRight=4;overflow=hidden;points=[[0,0.5],[1,0.5]];portConstraint=eastwest;rotatable=0;whiteSpace=wrap;html=1;fontColor=#FFFF66;sketch=1;curveFitting=1;jiggle=2;fontSize=17;fontStyle=1;labelBackgroundColor=none;" parent="DyUBaXVDuKabwyYEHic5-46" vertex="1">
          <mxGeometry y="109" width="233" height="78" as="geometry" />
        </mxCell>
        <mxCell id="DyUBaXVDuKabwyYEHic5-52" value="N,N" style="text;strokeColor=#008A00;align=center;fillColor=#008A00;html=1;verticalAlign=middle;whiteSpace=wrap;rounded=0;fontColor=#ffffff;sketch=1;curveFitting=1;jiggle=2;fontSize=17;fontStyle=1;labelBackgroundColor=none;" parent="1" vertex="1">
          <mxGeometry x="1293" y="1291" width="60" height="30" as="geometry" />
        </mxCell>
        <mxCell id="DyUBaXVDuKabwyYEHic5-53" value="1,N" style="text;strokeColor=none;align=center;fillColor=none;html=1;verticalAlign=middle;whiteSpace=wrap;rounded=0;fontColor=#00CCCC;sketch=1;curveFitting=1;jiggle=2;fontSize=17;fontStyle=1;labelBackgroundColor=none;" parent="1" vertex="1">
          <mxGeometry x="1491" y="953" width="60" height="30" as="geometry" />
        </mxCell>
        <mxCell id="DyUBaXVDuKabwyYEHic5-55" value="AVATAR" style="swimlane;fontStyle=1;childLayout=stackLayout;horizontal=1;startSize=66;horizontalStack=0;resizeParent=1;resizeParentMax=0;resizeLast=0;collapsible=1;marginBottom=0;whiteSpace=wrap;html=1;sketch=1;curveFitting=1;jiggle=2;fontSize=19;labelBackgroundColor=none;rounded=1;" parent="1" vertex="1">
          <mxGeometry x="197" y="1022" width="211" height="176" as="geometry" />
        </mxCell>
        <mxCell id="DyUBaXVDuKabwyYEHic5-56" value="&lt;span style=&quot;color: rgb(231, 35, 35); font-size: 17px;&quot;&gt;&amp;nbsp;ID -&amp;gt;&amp;nbsp; Primary | int | unsigned | Ai&lt;/span&gt;" style="text;strokeColor=default;fillColor=none;align=left;verticalAlign=middle;spacingLeft=4;spacingRight=4;overflow=hidden;points=[[0,0.5],[1,0.5]];portConstraint=eastwest;rotatable=0;whiteSpace=wrap;html=1;fontStyle=1;sketch=1;curveFitting=1;jiggle=2;fontSize=17;labelBackgroundColor=none;" parent="DyUBaXVDuKabwyYEHic5-55" vertex="1">
          <mxGeometry y="66" width="211" height="53" as="geometry" />
        </mxCell>
        <mxCell id="DyUBaXVDuKabwyYEHic5-57" value="label -&amp;gt; VARCHAR(50)" style="text;strokeColor=none;fillColor=none;align=left;verticalAlign=middle;spacingLeft=4;spacingRight=4;overflow=hidden;points=[[0,0.5],[1,0.5]];portConstraint=eastwest;rotatable=0;whiteSpace=wrap;html=1;sketch=1;curveFitting=1;jiggle=2;fontSize=17;fontStyle=1;labelBackgroundColor=none;" parent="DyUBaXVDuKabwyYEHic5-55" vertex="1">
          <mxGeometry y="119" width="211" height="57" as="geometry" />
        </mxCell>
        <mxCell id="DyUBaXVDuKabwyYEHic5-65" value="1,N" style="text;strokeColor=none;align=center;fillColor=none;html=1;verticalAlign=middle;whiteSpace=wrap;rounded=0;fontColor=#00CCCC;sketch=1;curveFitting=1;jiggle=2;fontStyle=1;fontSize=18;labelBackgroundColor=none;" parent="1" vertex="1">
          <mxGeometry x="122" y="1131" width="60" height="30" as="geometry" />
        </mxCell>
        <mxCell id="DyUBaXVDuKabwyYEHic5-66" value="1,1" style="text;strokeColor=none;align=center;fillColor=none;html=1;verticalAlign=middle;whiteSpace=wrap;rounded=0;fontColor=#00CCCC;sketch=1;curveFitting=1;jiggle=2;fontSize=19;fontStyle=1;labelBackgroundColor=none;" parent="1" vertex="1">
          <mxGeometry x="131" y="801" width="60" height="30" as="geometry" />
        </mxCell>
        <mxCell id="DyUBaXVDuKabwyYEHic5-67" value="N,1" style="text;strokeColor=#008A00;align=center;fillColor=#008A00;html=1;verticalAlign=middle;whiteSpace=wrap;rounded=0;fontColor=#ffffff;sketch=1;curveFitting=1;jiggle=2;fontSize=17;fontStyle=1;labelBackgroundColor=none;" parent="1" vertex="1">
          <mxGeometry x="1147" y="543" width="60" height="30" as="geometry" />
        </mxCell>
        <mxCell id="DyUBaXVDuKabwyYEHic5-69" style="edgeStyle=orthogonalEdgeStyle;rounded=0;orthogonalLoop=1;jettySize=auto;html=1;exitX=0;exitY=0.5;exitDx=0;exitDy=0;entryX=1;entryY=0.5;entryDx=0;entryDy=0;sketch=1;curveFitting=1;jiggle=2;fontSize=17;fontStyle=1;labelBackgroundColor=none;" parent="1" source="DyUBaXVDuKabwyYEHic5-40" target="DyUBaXVDuKabwyYEHic5-47" edge="1">
          <mxGeometry relative="1" as="geometry" />
        </mxCell>
        <mxCell id="DyUBaXVDuKabwyYEHic5-77" value="&lt;span style=&quot;font-size: 17px;&quot;&gt;One-to-Many&lt;/span&gt;" style="text;whiteSpace=wrap;html=1;align=center;fillColor=#008a00;fontColor=#ffffff;strokeColor=#005700;sketch=1;curveFitting=1;jiggle=2;fontSize=17;fontStyle=1;labelBackgroundColor=none;" parent="1" vertex="1">
          <mxGeometry x="1117" y="573" width="120" height="40" as="geometry" />
        </mxCell>
        <mxCell id="DyUBaXVDuKabwyYEHic5-78" value="&lt;span style=&quot;font-size: 17px;&quot;&gt;One-to-Many&lt;/span&gt;" style="text;whiteSpace=wrap;html=1;align=center;fillColor=#008a00;fontColor=#ffffff;strokeColor=#005700;sketch=1;curveFitting=1;jiggle=2;fontSize=17;fontStyle=1;labelBackgroundColor=none;" parent="1" vertex="1">
          <mxGeometry x="161" y="956" width="134" height="38" as="geometry" />
        </mxCell>
        <mxCell id="DyUBaXVDuKabwyYEHic5-86" value="&lt;span style=&quot;font-size: 17px;&quot;&gt;Many-to-Many&lt;/span&gt;" style="text;whiteSpace=wrap;html=1;align=center;fillColor=#008a00;fontColor=#ffffff;strokeColor=#005700;sketch=1;curveFitting=1;jiggle=2;fontSize=17;fontStyle=1;labelBackgroundColor=none;" parent="1" vertex="1">
          <mxGeometry x="1266" y="1322" width="122" height="38" as="geometry" />
        </mxCell>
        <mxCell id="DyUBaXVDuKabwyYEHic5-87" value="&lt;span style=&quot;font-size: 17px;&quot;&gt;One-to-Many&lt;/span&gt;" style="text;whiteSpace=wrap;html=1;align=center;fillColor=#008a00;fontColor=#ffffff;strokeColor=#005700;sketch=1;curveFitting=1;jiggle=2;fontSize=17;fontStyle=1;labelBackgroundColor=none;" parent="1" vertex="1">
          <mxGeometry x="1219" y="850" width="129" height="33" as="geometry" />
        </mxCell>
        <mxCell id="DyUBaXVDuKabwyYEHic5-89" value="N,1" style="text;strokeColor=#008A00;align=center;fillColor=#008A00;html=1;verticalAlign=middle;whiteSpace=wrap;rounded=0;fontColor=#ffffff;sketch=1;curveFitting=1;jiggle=2;fontSize=17;fontStyle=1;labelBackgroundColor=none;" parent="1" vertex="1">
          <mxGeometry x="210" y="923" width="60" height="30" as="geometry" />
        </mxCell>
        <mxCell id="DyUBaXVDuKabwyYEHic5-90" value="1,N" style="text;strokeColor=none;align=center;fillColor=none;html=1;verticalAlign=middle;whiteSpace=wrap;rounded=0;fontColor=#00CCCC;fontSize=18;fontStyle=1;sketch=1;curveFitting=1;jiggle=2;labelBackgroundColor=none;" parent="1" vertex="1">
          <mxGeometry x="466" y="526" width="60" height="30" as="geometry" />
        </mxCell>
        <mxCell id="DyUBaXVDuKabwyYEHic5-94" value="" style="whiteSpace=wrap;html=1;aspect=fixed;sketch=1;curveFitting=1;jiggle=2;fontStyle=1;fontSize=16;labelBackgroundColor=none;rounded=1;" parent="1" vertex="1">
          <mxGeometry x="1712" y="1223" width="234" height="234" as="geometry" />
        </mxCell>
        <mxCell id="DyUBaXVDuKabwyYEHic5-96" value="&lt;font style=&quot;font-size: 23px;&quot;&gt;Légendes&lt;/font&gt;" style="rounded=1;whiteSpace=wrap;html=1;sketch=1;curveFitting=1;jiggle=2;fontStyle=1;fontSize=16;labelBackgroundColor=none;" parent="1" vertex="1">
          <mxGeometry x="1711" y="1184" width="235" height="69" as="geometry" />
        </mxCell>
        <mxCell id="DyUBaXVDuKabwyYEHic5-97" value="" style="rounded=1;whiteSpace=wrap;html=1;fontColor=#ffffff;labelBackgroundColor=none;fillColor=#00CCCC;strokeColor=#00CCCC;sketch=1;curveFitting=1;jiggle=2;fontStyle=1;fontSize=16;" parent="1" vertex="1">
          <mxGeometry x="1723.5" y="1265" width="67" height="38" as="geometry" />
        </mxCell>
        <mxCell id="DyUBaXVDuKabwyYEHic5-98" value="" style="rounded=1;whiteSpace=wrap;html=1;fillColor=#008A00;fontColor=#ffffff;strokeColor=#008A00;sketch=1;curveFitting=1;jiggle=2;fontStyle=1;fontSize=16;labelBackgroundColor=none;" parent="1" vertex="1">
          <mxGeometry x="1723.13" y="1313.25" width="67" height="33" as="geometry" />
        </mxCell>
        <mxCell id="DyUBaXVDuKabwyYEHic5-99" value="" style="rounded=1;whiteSpace=wrap;html=1;fillColor=#FFFF33;fontColor=#000000;strokeColor=#FFFF66;sketch=1;curveFitting=1;jiggle=2;fontStyle=1;fontSize=16;labelBackgroundColor=none;" parent="1" vertex="1">
          <mxGeometry x="1724.38" y="1360" width="65.75" height="34" as="geometry" />
        </mxCell>
        <mxCell id="DyUBaXVDuKabwyYEHic5-100" value="" style="rounded=1;whiteSpace=wrap;html=1;strokeColor=#990000;fillColor=#990000;sketch=1;curveFitting=1;jiggle=2;fontStyle=1;fontSize=16;labelBackgroundColor=none;" parent="1" vertex="1">
          <mxGeometry x="1724" y="1408.62" width="66.5" height="32" as="geometry" />
        </mxCell>
        <mxCell id="DyUBaXVDuKabwyYEHic5-101" value="Cardinalités" style="text;strokeColor=none;align=center;fillColor=none;html=1;verticalAlign=middle;whiteSpace=wrap;rounded=1;sketch=1;curveFitting=1;jiggle=2;fontStyle=1;fontSize=19;labelBackgroundColor=none;" parent="1" vertex="1">
          <mxGeometry x="1804" y="1271.5" width="127" height="27.5" as="geometry" />
        </mxCell>
        <mxCell id="DyUBaXVDuKabwyYEHic5-102" value="Relations" style="text;strokeColor=none;align=center;fillColor=none;html=1;verticalAlign=middle;whiteSpace=wrap;rounded=1;sketch=1;curveFitting=1;jiggle=2;fontStyle=1;fontSize=19;labelBackgroundColor=none;" parent="1" vertex="1">
          <mxGeometry x="1804" y="1313.25" width="101" height="31.5" as="geometry" />
        </mxCell>
        <mxCell id="DyUBaXVDuKabwyYEHic5-103" value="Clé étrangères" style="text;strokeColor=none;align=center;fillColor=none;html=1;verticalAlign=middle;whiteSpace=wrap;rounded=1;spacingLeft=-9;spacingRight=-5;sketch=1;curveFitting=1;jiggle=2;fontStyle=1;fontSize=19;labelBackgroundColor=none;" parent="1" vertex="1">
          <mxGeometry x="1808" y="1358.5" width="133" height="37" as="geometry" />
        </mxCell>
        <mxCell id="DyUBaXVDuKabwyYEHic5-104" value="Clé primaires" style="text;strokeColor=none;align=center;fillColor=none;html=1;verticalAlign=middle;whiteSpace=wrap;rounded=1;spacingLeft=-5;spacingRight=-13;sketch=1;curveFitting=1;jiggle=2;fontStyle=1;fontSize=19;labelBackgroundColor=none;" parent="1" vertex="1">
          <mxGeometry x="1799" y="1405.75" width="131" height="41.25" as="geometry" />
        </mxCell>
        <mxCell id="fKSfSA_UPtx_BQv1lrkw-1" value="REPORT" style="swimlane;fontStyle=1;childLayout=stackLayout;horizontal=1;startSize=57;horizontalStack=0;resizeParent=1;resizeParentMax=0;resizeLast=0;collapsible=1;marginBottom=0;whiteSpace=wrap;html=1;fontSize=20;sketch=1;curveFitting=1;jiggle=2;labelBackgroundColor=none;rounded=1;" parent="1" vertex="1">
          <mxGeometry x="924" y="50" width="252" height="435" as="geometry" />
        </mxCell>
        <mxCell id="fKSfSA_UPtx_BQv1lrkw-2" value="&lt;span style=&quot;color: rgb(231, 35, 35); font-size: 20px;&quot;&gt;&amp;nbsp;ID | Primary | int | unsigned | Ai&lt;/span&gt;" style="text;strokeColor=default;fillColor=none;align=left;verticalAlign=middle;spacingLeft=4;spacingRight=4;overflow=hidden;points=[[0,0.5],[1,0.5]];portConstraint=eastwest;rotatable=0;whiteSpace=wrap;html=1;sketch=1;curveFitting=1;jiggle=2;fontSize=20;fontStyle=1;labelBackgroundColor=none;" parent="fKSfSA_UPtx_BQv1lrkw-1" vertex="1">
          <mxGeometry y="57" width="252" height="64" as="geometry" />
        </mxCell>
        <mxCell id="fKSfSA_UPtx_BQv1lrkw-3" value="reason | TEXT" style="text;strokeColor=default;fillColor=none;align=left;verticalAlign=middle;spacingLeft=4;spacingRight=4;overflow=hidden;points=[[0,0.5],[1,0.5]];portConstraint=eastwest;rotatable=0;whiteSpace=wrap;html=1;sketch=1;curveFitting=1;jiggle=2;fontSize=19;fontStyle=1;labelBackgroundColor=none;" parent="fKSfSA_UPtx_BQv1lrkw-1" vertex="1">
          <mxGeometry y="121" width="252" height="56" as="geometry" />
        </mxCell>
        <mxCell id="fKSfSA_UPtx_BQv1lrkw-4" value="created_at | DATETIME" style="text;strokeColor=default;fillColor=none;align=left;verticalAlign=middle;spacingLeft=4;spacingRight=4;overflow=hidden;points=[[0,0.5],[1,0.5]];portConstraint=eastwest;rotatable=0;whiteSpace=wrap;html=1;sketch=1;curveFitting=1;jiggle=2;fontSize=19;fontStyle=1;labelBackgroundColor=none;" parent="fKSfSA_UPtx_BQv1lrkw-1" vertex="1">
          <mxGeometry y="177" width="252" height="58" as="geometry" />
        </mxCell>
        <mxCell id="fKSfSA_UPtx_BQv1lrkw-20" value="status | enum(&#39;en attente&#39;,&#39;validé&#39;, &#39;rejeté&#39;)" style="text;strokeColor=default;fillColor=none;align=left;verticalAlign=middle;spacingLeft=4;spacingRight=4;overflow=hidden;points=[[0,0.5],[1,0.5]];portConstraint=eastwest;rotatable=0;whiteSpace=wrap;html=1;sketch=1;curveFitting=1;jiggle=2;fontSize=19;fontStyle=1;labelBackgroundColor=none;" parent="fKSfSA_UPtx_BQv1lrkw-1" vertex="1">
          <mxGeometry y="235" width="252" height="61" as="geometry" />
        </mxCell>
        <mxCell id="fKSfSA_UPtx_BQv1lrkw-21" value="&lt;span style=&quot;color: rgb(255, 255, 102); font-size: 19px;&quot;&gt;user_id |&lt;/span&gt;&lt;span style=&quot;color: rgb(255, 255, 102); font-size: 19px;&quot;&gt;&amp;nbsp;Foreign-Key | int |&amp;nbsp;&lt;/span&gt;" style="text;strokeColor=default;fillColor=none;align=left;verticalAlign=middle;spacingLeft=4;spacingRight=4;overflow=hidden;points=[[0,0.5],[1,0.5]];portConstraint=eastwest;rotatable=0;whiteSpace=wrap;html=1;sketch=1;curveFitting=1;jiggle=2;fontSize=19;fontStyle=1;labelBackgroundColor=none;" parent="fKSfSA_UPtx_BQv1lrkw-1" vertex="1">
          <mxGeometry y="296" width="252" height="57" as="geometry" />
        </mxCell>
        <mxCell id="fKSfSA_UPtx_BQv1lrkw-22" value="&lt;div&gt;&lt;span style=&quot;color: rgb(255, 255, 102); font-family: Helvetica; font-size: 18px; font-style: normal; font-variant-ligatures: normal; font-variant-caps: normal; letter-spacing: normal; orphans: 2; text-align: left; text-indent: 0px; text-transform: none; widows: 2; word-spacing: 0px; -webkit-text-stroke-width: 0px; white-space: normal; text-decoration-thickness: initial; text-decoration-style: initial; text-decoration-color: initial; float: none; display: inline !important;&quot;&gt;&lt;br&gt;&lt;/span&gt;&lt;/div&gt;&lt;span style=&quot;color: rgb(255, 255, 102); font-family: Helvetica; font-size: 18px; font-style: normal; font-variant-ligatures: normal; font-variant-caps: normal; letter-spacing: normal; orphans: 2; text-align: left; text-indent: 0px; text-transform: none; widows: 2; word-spacing: 0px; -webkit-text-stroke-width: 0px; white-space: normal; text-decoration-thickness: initial; text-decoration-style: initial; text-decoration-color: initial; float: none; display: inline !important;&quot;&gt;comment_id | Foreign-Key | int |&amp;nbsp;&lt;/span&gt;&lt;div style=&quot;font-size: 18px;&quot;&gt;&lt;br style=&quot;font-size: 18px;&quot;&gt;&lt;/div&gt;" style="text;strokeColor=none;fillColor=none;align=left;verticalAlign=middle;spacingLeft=4;spacingRight=4;overflow=hidden;points=[[0,0.5],[1,0.5]];portConstraint=eastwest;rotatable=0;whiteSpace=wrap;html=1;sketch=1;curveFitting=1;jiggle=2;fontSize=18;fontStyle=1;labelBackgroundColor=none;rounded=1;" parent="fKSfSA_UPtx_BQv1lrkw-1" vertex="1">
          <mxGeometry y="353" width="252" height="82" as="geometry" />
        </mxCell>
        <mxCell id="fKSfSA_UPtx_BQv1lrkw-5" value="CONTACT" style="swimlane;fontStyle=1;childLayout=stackLayout;horizontal=1;startSize=59;horizontalStack=0;resizeParent=1;resizeParentMax=0;resizeLast=0;collapsible=1;marginBottom=0;whiteSpace=wrap;html=1;sketch=1;curveFitting=1;jiggle=2;fontSize=20;labelBackgroundColor=none;rounded=1;" parent="1" vertex="1">
          <mxGeometry x="73" y="36" width="244" height="371" as="geometry" />
        </mxCell>
        <mxCell id="fKSfSA_UPtx_BQv1lrkw-7" value="&lt;span style=&quot;color: rgb(231, 35, 35); font-size: 19px;&quot;&gt;&amp;nbsp;ID | Primary | int | unsigned | Ai&lt;/span&gt;" style="text;strokeColor=default;fillColor=none;align=left;verticalAlign=middle;spacingLeft=4;spacingRight=4;overflow=hidden;points=[[0,0.5],[1,0.5]];portConstraint=eastwest;rotatable=0;whiteSpace=wrap;html=1;sketch=1;curveFitting=1;jiggle=2;fontSize=19;fontStyle=1;labelBackgroundColor=none;" parent="fKSfSA_UPtx_BQv1lrkw-5" vertex="1">
          <mxGeometry y="59" width="244" height="64" as="geometry" />
        </mxCell>
        <mxCell id="fKSfSA_UPtx_BQv1lrkw-16" value="username | CHAR(30)" style="text;strokeColor=default;fillColor=none;align=left;verticalAlign=middle;spacingLeft=4;spacingRight=4;overflow=hidden;points=[[0,0.5],[1,0.5]];portConstraint=eastwest;rotatable=0;whiteSpace=wrap;html=1;sketch=1;curveFitting=1;jiggle=2;fontSize=19;fontStyle=1;labelBackgroundColor=none;" parent="fKSfSA_UPtx_BQv1lrkw-5" vertex="1">
          <mxGeometry y="123" width="244" height="43" as="geometry" />
        </mxCell>
        <mxCell id="fKSfSA_UPtx_BQv1lrkw-8" value="email | VARCHAR(100)" style="text;strokeColor=default;fillColor=none;align=left;verticalAlign=middle;spacingLeft=4;spacingRight=4;overflow=hidden;points=[[0,0.5],[1,0.5]];portConstraint=eastwest;rotatable=0;whiteSpace=wrap;html=1;sketch=1;curveFitting=1;jiggle=2;fontSize=18;fontStyle=1;labelBackgroundColor=none;" parent="fKSfSA_UPtx_BQv1lrkw-5" vertex="1">
          <mxGeometry y="166" width="244" height="55" as="geometry" />
        </mxCell>
        <mxCell id="fKSfSA_UPtx_BQv1lrkw-9" value="content | TEXT" style="text;strokeColor=default;fillColor=none;align=left;verticalAlign=middle;spacingLeft=4;spacingRight=4;overflow=hidden;points=[[0,0.5],[1,0.5]];portConstraint=eastwest;rotatable=0;whiteSpace=wrap;html=1;sketch=1;curveFitting=1;jiggle=2;fontSize=19;fontStyle=1;labelBackgroundColor=none;" parent="fKSfSA_UPtx_BQv1lrkw-5" vertex="1">
          <mxGeometry y="221" width="244" height="43" as="geometry" />
        </mxCell>
        <mxCell id="fKSfSA_UPtx_BQv1lrkw-10" value="status | tinyInt(1)" style="text;strokeColor=default;fillColor=none;align=left;verticalAlign=middle;spacingLeft=4;spacingRight=4;overflow=hidden;points=[[0,0.5],[1,0.5]];portConstraint=eastwest;rotatable=0;whiteSpace=wrap;html=1;sketch=1;curveFitting=1;jiggle=2;fontSize=19;fontStyle=1;labelBackgroundColor=none;" parent="fKSfSA_UPtx_BQv1lrkw-5" vertex="1">
          <mxGeometry y="264" width="244" height="49" as="geometry" />
        </mxCell>
        <mxCell id="fKSfSA_UPtx_BQv1lrkw-17" value="publish_date | DATETIME" style="text;strokeColor=none;fillColor=none;align=left;verticalAlign=middle;spacingLeft=4;spacingRight=4;overflow=hidden;points=[[0,0.5],[1,0.5]];portConstraint=eastwest;rotatable=0;whiteSpace=wrap;html=1;sketch=1;curveFitting=1;jiggle=2;fontSize=18;fontStyle=1;labelBackgroundColor=none;" parent="fKSfSA_UPtx_BQv1lrkw-5" vertex="1">
          <mxGeometry y="313" width="244" height="58" as="geometry" />
        </mxCell>
        <mxCell id="fKSfSA_UPtx_BQv1lrkw-26" style="edgeStyle=orthogonalEdgeStyle;rounded=0;orthogonalLoop=1;jettySize=auto;html=1;entryX=1;entryY=0.5;entryDx=0;entryDy=0;sketch=1;curveFitting=1;jiggle=2;fontSize=17;fontStyle=1;labelBackgroundColor=none;" parent="1" source="DyUBaXVDuKabwyYEHic5-10" target="fKSfSA_UPtx_BQv1lrkw-22" edge="1">
          <mxGeometry relative="1" as="geometry" />
        </mxCell>
        <mxCell id="fKSfSA_UPtx_BQv1lrkw-27" value="1,1" style="text;strokeColor=none;align=center;fillColor=none;html=1;verticalAlign=middle;whiteSpace=wrap;rounded=0;fontColor=#00CCCC;sketch=1;curveFitting=1;jiggle=2;fontSize=19;fontStyle=1;labelBackgroundColor=none;" parent="1" vertex="1">
          <mxGeometry x="1191" y="377" width="60" height="30" as="geometry" />
        </mxCell>
        <mxCell id="fKSfSA_UPtx_BQv1lrkw-28" value="1,N" style="text;strokeColor=none;align=center;fillColor=none;html=1;verticalAlign=middle;whiteSpace=wrap;rounded=0;fontColor=#00CCCC;sketch=1;curveFitting=1;jiggle=2;fontSize=19;fontStyle=1;labelBackgroundColor=none;" parent="1" vertex="1">
          <mxGeometry x="1531" y="237" width="60" height="30" as="geometry" />
        </mxCell>
        <mxCell id="fKSfSA_UPtx_BQv1lrkw-30" value="N,1" style="text;strokeColor=#008A00;align=center;fillColor=#008A00;html=1;verticalAlign=middle;whiteSpace=wrap;rounded=0;fontColor=#ffffff;sketch=1;curveFitting=1;jiggle=2;fontSize=17;fontStyle=1;labelBackgroundColor=none;" parent="1" vertex="1">
          <mxGeometry x="1293" y="169" width="60" height="30" as="geometry" />
        </mxCell>
        <mxCell id="fKSfSA_UPtx_BQv1lrkw-31" value="&lt;span style=&quot;font-size: 17px;&quot;&gt;One-to-Many&lt;/span&gt;" style="text;whiteSpace=wrap;html=1;align=center;fillColor=#008a00;fontColor=#ffffff;strokeColor=#005700;sketch=1;curveFitting=1;jiggle=2;fontSize=17;fontStyle=1;labelBackgroundColor=none;" parent="1" vertex="1">
          <mxGeometry x="1255" y="199" width="129" height="35" as="geometry" />
        </mxCell>
        <mxCell id="fKSfSA_UPtx_BQv1lrkw-35" value="1,1" style="text;strokeColor=none;align=center;fillColor=none;html=1;verticalAlign=middle;whiteSpace=wrap;rounded=0;fontColor=#00CCCC;sketch=1;curveFitting=1;jiggle=2;fontSize=19;fontStyle=1;labelBackgroundColor=none;" parent="1" vertex="1">
          <mxGeometry x="861" y="339" width="60" height="30" as="geometry" />
        </mxCell>
        <mxCell id="fKSfSA_UPtx_BQv1lrkw-37" value="N,1" style="text;strokeColor=#008A00;align=center;fillColor=#008A00;html=1;verticalAlign=middle;whiteSpace=wrap;rounded=0;fontColor=#ffffff;sketch=1;curveFitting=1;jiggle=2;fontSize=17;fontStyle=1;labelBackgroundColor=none;" parent="1" vertex="1">
          <mxGeometry x="589" y="334" width="60" height="30" as="geometry" />
        </mxCell>
        <mxCell id="fKSfSA_UPtx_BQv1lrkw-38" value="&lt;span style=&quot;font-size: 17px;&quot;&gt;One-to-Many&lt;/span&gt;" style="text;whiteSpace=wrap;html=1;align=center;fillColor=#008a00;fontColor=#ffffff;strokeColor=#005700;sketch=1;curveFitting=1;jiggle=2;fontSize=17;fontStyle=1;labelBackgroundColor=none;" parent="1" vertex="1">
          <mxGeometry x="564" y="369" width="110" height="33" as="geometry" />
        </mxCell>
        <mxCell id="fKSfSA_UPtx_BQv1lrkw-42" style="edgeStyle=orthogonalEdgeStyle;rounded=0;sketch=1;hachureGap=4;jiggle=2;curveFitting=1;orthogonalLoop=1;jettySize=auto;html=1;entryX=0;entryY=0.5;entryDx=0;entryDy=0;fontFamily=Architects Daughter;fontSource=https%3A%2F%2Ffonts.googleapis.com%2Fcss%3Ffamily%3DArchitects%2BDaughter;fontSize=17;fontStyle=1;labelBackgroundColor=none;" parent="1" source="DyUBaXVDuKabwyYEHic5-2" target="DyUBaXVDuKabwyYEHic5-22" edge="1">
          <mxGeometry relative="1" as="geometry">
            <Array as="points">
              <mxPoint x="1113" y="1085" />
              <mxPoint x="1113" y="798" />
              <mxPoint x="1378" y="798" />
            </Array>
          </mxGeometry>
        </mxCell>
        <mxCell id="fKSfSA_UPtx_BQv1lrkw-46" style="edgeStyle=orthogonalEdgeStyle;rounded=0;sketch=1;hachureGap=4;jiggle=2;curveFitting=1;orthogonalLoop=1;jettySize=auto;html=1;entryX=0.018;entryY=0.776;entryDx=0;entryDy=0;entryPerimeter=0;fontFamily=Architects Daughter;fontSource=https%3A%2F%2Ffonts.googleapis.com%2Fcss%3Ffamily%3DArchitects%2BDaughter;labelBackgroundColor=none;" parent="1" source="DyUBaXVDuKabwyYEHic5-2" target="DyUBaXVDuKabwyYEHic5-49" edge="1">
          <mxGeometry relative="1" as="geometry" />
        </mxCell>
        <mxCell id="w0uu5gXpklUGNQs3bsFh-8" value="&lt;font color=&quot;#ffffff&quot;&gt;IMAGE&lt;/font&gt;" style="swimlane;fontStyle=1;childLayout=stackLayout;horizontal=1;startSize=60;horizontalStack=0;resizeParent=1;resizeParentMax=0;resizeLast=0;collapsible=1;marginBottom=0;whiteSpace=wrap;html=1;fontSize=19;strokeColor=#FFFFFF;fontColor=#000000;sketch=1;curveFitting=1;jiggle=2;labelBackgroundColor=none;rounded=1;" parent="1" vertex="1">
          <mxGeometry x="787" y="670" width="220" height="230" as="geometry" />
        </mxCell>
        <mxCell id="w0uu5gXpklUGNQs3bsFh-9" value="&lt;span style=&quot;color: rgb(231, 35, 35);&quot;&gt;&amp;nbsp;ID | Primary | int | unsigned | Ai&lt;/span&gt;" style="text;strokeColor=#FFFFFF;fillColor=none;align=left;verticalAlign=middle;spacingLeft=4;spacingRight=4;overflow=hidden;points=[[0,0.5],[1,0.5]];portConstraint=eastwest;rotatable=0;whiteSpace=wrap;html=1;labelBorderColor=none;fontSize=17;fontStyle=1;fontColor=#000000;sketch=1;curveFitting=1;jiggle=2;labelBackgroundColor=none;" parent="w0uu5gXpklUGNQs3bsFh-8" vertex="1">
          <mxGeometry y="60" width="220" height="55" as="geometry" />
        </mxCell>
        <mxCell id="w0uu5gXpklUGNQs3bsFh-10" value="&lt;font color=&quot;#ffffff&quot;&gt;&amp;nbsp; url | varchar(150)&lt;/font&gt;" style="text;strokeColor=#FFFFFF;fillColor=none;align=left;verticalAlign=middle;spacingLeft=0;spacingRight=4;overflow=hidden;points=[[0,0.5],[1,0.5]];portConstraint=eastwest;rotatable=0;whiteSpace=wrap;html=1;fontSize=17;fontStyle=1;fontColor=#000000;sketch=1;curveFitting=1;jiggle=2;labelBackgroundColor=none;" parent="w0uu5gXpklUGNQs3bsFh-8" vertex="1">
          <mxGeometry y="115" width="220" height="50" as="geometry" />
        </mxCell>
        <mxCell id="w0uu5gXpklUGNQs3bsFh-11" value="&lt;font color=&quot;#ffff66&quot;&gt;&amp;nbsp;post_id&amp;nbsp;&lt;span style=&quot;font-size: 15px;&quot;&gt;| Foreign-Key | int |&amp;nbsp; &amp;nbsp;&lt;/span&gt;&lt;/font&gt;" style="text;strokeColor=#FFFFFF;fillColor=none;align=left;verticalAlign=middle;spacingLeft=0;spacingRight=4;overflow=hidden;points=[[0,0.5],[1,0.5]];portConstraint=eastwest;rotatable=0;whiteSpace=wrap;html=1;fontSize=17;fontStyle=1;fontColor=#000000;sketch=1;curveFitting=1;jiggle=2;labelBackgroundColor=none;rounded=1;" parent="w0uu5gXpklUGNQs3bsFh-8" vertex="1">
          <mxGeometry y="165" width="220" height="65" as="geometry" />
        </mxCell>
        <mxCell id="w0uu5gXpklUGNQs3bsFh-13" value="1,1" style="text;strokeColor=none;align=center;fillColor=none;html=1;verticalAlign=middle;whiteSpace=wrap;rounded=0;fontColor=#00CCCC;sketch=1;curveFitting=1;jiggle=2;fontSize=19;fontStyle=1;labelBackgroundColor=none;" parent="1" vertex="1">
          <mxGeometry x="724" y="850" width="60" height="30" as="geometry" />
        </mxCell>
        <mxCell id="w0uu5gXpklUGNQs3bsFh-14" value="&lt;span style=&quot;font-size: 17px;&quot;&gt;One-to-Many&lt;/span&gt;" style="text;whiteSpace=wrap;html=1;align=center;fillColor=#008a00;fontColor=#ffffff;strokeColor=#005700;sketch=1;curveFitting=1;jiggle=2;fontSize=17;fontStyle=1;labelBackgroundColor=none;" parent="1" vertex="1">
          <mxGeometry x="616" y="734" width="134" height="38" as="geometry" />
        </mxCell>
        <mxCell id="w0uu5gXpklUGNQs3bsFh-15" value="N,1" style="text;strokeColor=#008A00;align=center;fillColor=#008A00;html=1;verticalAlign=middle;whiteSpace=wrap;rounded=0;fontColor=#ffffff;sketch=1;curveFitting=1;jiggle=2;fontSize=17;fontStyle=1;labelBackgroundColor=none;" parent="1" vertex="1">
          <mxGeometry x="649" y="701" width="60" height="30" as="geometry" />
        </mxCell>
        <mxCell id="w0uu5gXpklUGNQs3bsFh-16" value="1,N" style="text;strokeColor=none;align=center;fillColor=none;html=1;verticalAlign=middle;whiteSpace=wrap;rounded=0;fontColor=#00CCCC;sketch=1;curveFitting=1;jiggle=2;fontStyle=1;fontSize=18;labelBackgroundColor=none;" parent="1" vertex="1">
          <mxGeometry x="530" y="1036" width="60" height="30" as="geometry" />
        </mxCell>
        <mxCell id="w0uu5gXpklUGNQs3bsFh-17" style="edgeStyle=orthogonalEdgeStyle;rounded=0;orthogonalLoop=1;jettySize=auto;html=1;sketch=1;curveFitting=1;jiggle=2;labelBackgroundColor=none;" parent="1" source="DyUBaXVDuKabwyYEHic5-2" edge="1">
          <mxGeometry relative="1" as="geometry">
            <mxPoint x="787" y="842" as="targetPoint" />
            <Array as="points">
              <mxPoint x="587" y="1113" />
              <mxPoint x="587" y="842" />
            </Array>
          </mxGeometry>
        </mxCell>
        <mxCell id="w0uu5gXpklUGNQs3bsFh-18" value="&lt;font color=&quot;#ffffff&quot;&gt;SESSIONS&lt;/font&gt;" style="swimlane;fontStyle=1;childLayout=stackLayout;horizontal=1;startSize=60;horizontalStack=0;resizeParent=1;resizeParentMax=0;resizeLast=0;collapsible=1;marginBottom=0;whiteSpace=wrap;html=1;sketch=1;curveFitting=1;jiggle=2;fontSize=19;strokeColor=#FFFFFF;fontColor=#000000;labelBackgroundColor=none;rounded=1;" parent="1" vertex="1">
          <mxGeometry x="32" y="1258" width="161" height="189" as="geometry" />
        </mxCell>
        <mxCell id="w0uu5gXpklUGNQs3bsFh-19" value="session_id | VARCHAR(128)" style="text;strokeColor=#FFFFFF;fillColor=none;align=left;verticalAlign=middle;spacingLeft=4;spacingRight=4;overflow=hidden;points=[[0,0.5],[1,0.5]];portConstraint=eastwest;rotatable=0;whiteSpace=wrap;html=1;labelBorderColor=none;sketch=1;curveFitting=1;jiggle=2;fontSize=17;fontStyle=1;fontColor=#CC0000;labelBackgroundColor=none;rounded=1;" parent="w0uu5gXpklUGNQs3bsFh-18" vertex="1">
          <mxGeometry y="60" width="161" height="53" as="geometry" />
        </mxCell>
        <mxCell id="w0uu5gXpklUGNQs3bsFh-20" value="&lt;font color=&quot;#ffffff&quot;&gt;expires | INT&lt;/font&gt;" style="text;strokeColor=#FFFFFF;fillColor=none;align=left;verticalAlign=middle;spacingLeft=0;spacingRight=4;overflow=hidden;points=[[0,0.5],[1,0.5]];portConstraint=eastwest;rotatable=0;whiteSpace=wrap;html=1;sketch=1;curveFitting=1;jiggle=2;fontSize=17;fontStyle=1;fontColor=#000000;labelBackgroundColor=none;rounded=1;" parent="w0uu5gXpklUGNQs3bsFh-18" vertex="1">
          <mxGeometry y="113" width="161" height="38" as="geometry" />
        </mxCell>
        <mxCell id="w0uu5gXpklUGNQs3bsFh-21" value="&lt;font color=&quot;#ffffff&quot;&gt;data | mediumText&lt;/font&gt;" style="text;strokeColor=#FFFFFF;fillColor=none;align=left;verticalAlign=middle;spacingLeft=0;spacingRight=4;overflow=hidden;points=[[0,0.5],[1,0.5]];portConstraint=eastwest;rotatable=0;whiteSpace=wrap;html=1;sketch=1;curveFitting=1;jiggle=2;fontSize=17;fontStyle=1;fontColor=#000000;labelBackgroundColor=none;rounded=1;" parent="w0uu5gXpklUGNQs3bsFh-18" vertex="1">
          <mxGeometry y="151" width="161" height="38" as="geometry" />
        </mxCell>
        <mxCell id="w0uu5gXpklUGNQs3bsFh-25" value="1,N" style="text;strokeColor=none;align=center;fillColor=none;html=1;verticalAlign=middle;whiteSpace=wrap;rounded=0;fontColor=#00CCCC;sketch=1;curveFitting=1;jiggle=2;fontSize=17;fontStyle=1;labelBackgroundColor=none;" parent="1" vertex="1">
          <mxGeometry x="845" y="1122" width="60" height="30" as="geometry" />
        </mxCell>
        <mxCell id="w0uu5gXpklUGNQs3bsFh-26" value="1,1" style="text;strokeColor=none;align=center;fillColor=none;html=1;verticalAlign=middle;whiteSpace=wrap;rounded=0;fontColor=#00CCCC;sketch=1;curveFitting=1;jiggle=2;fontSize=17;fontStyle=1;labelBackgroundColor=none;" parent="1" vertex="1">
          <mxGeometry x="1447" y="1201" width="60" height="30" as="geometry" />
        </mxCell>
        <mxCell id="w0uu5gXpklUGNQs3bsFh-27" style="edgeStyle=orthogonalEdgeStyle;rounded=0;orthogonalLoop=1;jettySize=auto;html=1;entryX=0;entryY=0.5;entryDx=0;entryDy=0;" parent="1" source="DyUBaXVDuKabwyYEHic5-6" target="DyUBaXVDuKabwyYEHic5-21" edge="1">
          <mxGeometry relative="1" as="geometry" />
        </mxCell>
        <mxCell id="w0uu5gXpklUGNQs3bsFh-28" style="edgeStyle=orthogonalEdgeStyle;rounded=0;orthogonalLoop=1;jettySize=auto;html=1;entryX=-0.001;entryY=0.307;entryDx=0;entryDy=0;entryPerimeter=0;sketch=1;curveFitting=1;jiggle=2;" parent="1" source="DyUBaXVDuKabwyYEHic5-56" target="DyUBaXVDuKabwyYEHic5-60" edge="1">
          <mxGeometry relative="1" as="geometry">
            <Array as="points">
              <mxPoint x="89" y="1118" />
              <mxPoint x="89" y="839" />
            </Array>
          </mxGeometry>
        </mxCell>
        <mxCell id="w0uu5gXpklUGNQs3bsFh-30" style="edgeStyle=orthogonalEdgeStyle;rounded=0;orthogonalLoop=1;jettySize=auto;html=1;" parent="1" source="DyUBaXVDuKabwyYEHic5-6" target="fKSfSA_UPtx_BQv1lrkw-21" edge="1">
          <mxGeometry relative="1" as="geometry" />
        </mxCell>
        <mxCell id="iRIhQx6o-oyNlB2yPlpj-4" value="1,N" style="text;strokeColor=none;align=center;fillColor=none;html=1;verticalAlign=middle;whiteSpace=wrap;rounded=0;fontColor=#00CCCC;sketch=1;curveFitting=1;jiggle=2;fontSize=19;fontStyle=1;labelBackgroundColor=none;" parent="1" vertex="1">
          <mxGeometry x="1893" y="237" width="60" height="30" as="geometry" />
        </mxCell>
        <mxCell id="iRIhQx6o-oyNlB2yPlpj-5" value="1,1" style="text;strokeColor=none;align=center;fillColor=none;html=1;verticalAlign=middle;whiteSpace=wrap;rounded=0;fontColor=#00CCCC;sketch=1;curveFitting=1;jiggle=2;fontSize=19;fontStyle=1;labelBackgroundColor=none;" parent="1" vertex="1">
          <mxGeometry x="1905" y="704" width="60" height="30" as="geometry" />
        </mxCell>
      </root>
    </mxGraphModel>
  </diagram>
</mxfile>
